<svg width="52" height="52" viewBox="0 0 52 52" fill="none" xmlns="http://www.w3.org/2000/svg">
<rect width="52" height="52" rx="26" fill="url(#paint0_linear_1_212)"/>
<path d="M22.4509 31.3206C26.6594 31.0869 30 27.6003 30 23.3333C30 18.9151 26.4183 15.3333 22 15.3333C17.5817 15.3333 14 18.9151 14 23.3333C14 24.9076 14.4546 26.3756 15.2399 27.6133L14.6745 29.3094L14.6736 29.3119C14.457 29.9615 14.3487 30.2865 14.4258 30.5028C14.4931 30.6913 14.6422 30.8398 14.8307 30.9071C15.0463 30.9839 15.369 30.8764 16.0143 30.6613L16.0234 30.6585L17.7201 30.0931C18.9577 30.8784 20.4258 31.3331 22.0001 31.3331C22.1514 31.3331 22.3016 31.3289 22.4509 31.3206ZM22.4509 31.3206C22.451 31.3209 22.4507 31.3203 22.4509 31.3206ZM22.4509 31.3206C23.5454 34.4345 26.5121 36.6669 30.0002 36.6669C31.5745 36.6669 33.0422 36.2118 34.2798 35.4264L35.976 35.9918L35.9794 35.9925C36.6289 36.209 36.9544 36.3175 37.1707 36.2404C37.3592 36.1732 37.5065 36.0246 37.5737 35.8361C37.6509 35.6195 37.5429 35.2942 37.3258 34.6428L36.7604 32.9466L36.9498 32.6328C37.6184 31.4639 37.9993 30.1098 37.9993 28.6667C37.9993 24.2484 34.4183 20.6667 30 20.6667L29.7005 20.6722L29.5495 20.6796" stroke="white" stroke-width="2" stroke-linecap="round" stroke-linejoin="round"/>
<defs>
<linearGradient id="paint0_linear_1_212" x1="35.2232" y1="129.458" x2="6.3229" y2="123.064" gradientUnits="userSpaceOnUse">
<stop stop-color="#EFA058"/>
<stop offset="1" stop-color="#EF5858"/>
</linearGradient>
</defs>
</svg>
