<svg width="44" height="44" viewBox="0 0 44 44" fill="none" xmlns="http://www.w3.org/2000/svg">
<circle cx="22" cy="22" r="21.5417" stroke="#A4A4A4" stroke-width="0.916667"/>
<path fill-rule="evenodd" clip-rule="evenodd" d="M20.7432 29.0795C21.1317 29.5123 21.6305 29.75 22.148 29.75H22.1487C22.6685 29.75 23.1695 29.5122 23.5587 29.0787C23.7672 28.8485 24.1227 28.8297 24.353 29.0375C24.584 29.2452 24.6027 29.6015 24.395 29.8317C23.789 30.5045 22.9917 30.875 22.1487 30.875H22.1472C21.3065 30.8743 20.5107 30.5037 19.907 29.831C19.6992 29.6007 19.718 29.2445 19.949 29.0375C20.18 28.829 20.5355 28.8478 20.7432 29.0795ZM22.1853 14.75C25.5191 14.75 27.7586 17.3465 27.7586 19.7713C27.7586 21.0185 28.0758 21.5472 28.4126 22.1082C28.7456 22.6617 29.1228 23.2902 29.1228 24.4782C28.8611 27.5135 25.6923 27.761 22.1853 27.761C18.6783 27.761 15.5088 27.5135 15.2501 24.5262C15.2478 23.2902 15.6251 22.6617 15.9581 22.1082L16.0757 21.9104C16.3651 21.4129 16.6121 20.8718 16.6121 19.7713C16.6121 17.3465 18.8516 14.75 22.1853 14.75ZM22.1853 15.875C19.5641 15.875 17.7371 17.9285 17.7371 19.7713C17.7371 21.3305 17.3043 22.0512 16.9218 22.6873C16.6151 23.198 16.3728 23.6015 16.3728 24.4782C16.4981 25.8927 17.4318 26.636 22.1853 26.636C26.9126 26.636 27.8756 25.8597 28.0001 24.4295C27.9978 23.6015 27.7556 23.198 27.4488 22.6873C27.0663 22.0512 26.6336 21.3305 26.6336 19.7713C26.6336 17.9285 24.8066 15.875 22.1853 15.875Z" fill="#141414"/>
</svg>
